<svg xmlns="http://www.w3.org/2000/svg" viewBox="0 0 512 512" role="img" aria-labelledby="title desc">
  <title id="title">GameDravo logo</title>
  <desc id="desc">A lightweight futuristic neon play-glyph inside a rounded square.</desc>
  <defs>
    <linearGradient id="bg" x1="64" y1="48" x2="448" y2="464" gradientUnits="userSpaceOnUse">
      <stop stop-color="#08111f"/>
      <stop offset="0.5" stop-color="#11102b"/>
      <stop offset="1" stop-color="#05070d"/>
    </linearGradient>
    <linearGradient id="neon" x1="122" y1="116" x2="390" y2="396" gradientUnits="userSpaceOnUse">
      <stop stop-color="#22d3ee"/>
      <stop offset="0.48" stop-color="#8b5cf6"/>
      <stop offset="1" stop-color="#f472b6"/>
    </linearGradient>
    <filter id="softGlow" x="-24%" y="-24%" width="148%" height="148%" color-interpolation-filters="sRGB">
      <feDropShadow dx="0" dy="0" stdDeviation="14" flood-color="#8b5cf6" flood-opacity="0.35"/>
      <feDropShadow dx="0" dy="0" stdDeviation="7" flood-color="#22d3ee" flood-opacity="0.28"/>
    </filter>
  </defs>
  <rect width="512" height="512" rx="128" fill="url(#bg)"/>
  <path d="M94 135C94 112.9 111.9 95 134 95h244c22.1 0 40 17.9 40 40v242c0 22.1-17.9 40-40 40H134c-22.1 0-40-17.9-40-40V135Z" fill="none" stroke="url(#neon)" stroke-width="12" opacity="0.9"/>
  <path d="M134 255c0-80.6 65.4-146 146-146h66c17.7 0 32 14.3 32 32v230c0 17.7-14.3 32-32 32h-66c-80.6 0-146-65.4-146-146v-2Z" fill="#ffffff" opacity="0.035"/>
  <g filter="url(#softGlow)">
    <path d="M187 156v200c0 18.2 20 29.3 35.4 19.6l158.4-99.9c14.4-9.1 14.4-30.1 0-39.2L222.4 136.4C207 126.7 187 137.8 187 156Z" fill="url(#neon)"/>
    <path d="M213 179v154.1l122.3-77.1L213 179Z" fill="#05070d" opacity="0.72"/>
  </g>
  <path d="M130 145h56M326 367h56M127 367h34M348 145h34" stroke="#e0f2fe" stroke-width="10" stroke-linecap="round" opacity="0.5"/>
</svg>
