<svg xmlns="http://www.w3.org/2000/svg" viewBox="0 0 512 512" width="512" height="512">
  <defs>
    <linearGradient id="bg-grad-duckhunt-js" x1="0%" y1="0%" x2="100%" y2="100%">
      <stop offset="0%" stop-color="#070712" />
      <stop offset="50%" stop-color="#0f0e21" />
      <stop offset="100%" stop-color="#04040a" />
    </linearGradient>
    <linearGradient id="glow-grad-duckhunt-js" x1="0%" y1="0%" x2="100%" y2="100%">
      <stop offset="0%" stop-color="#10b981" stop-opacity="0.35" />
      <stop offset="100%" stop-color="#06b6d4" stop-opacity="0.0" />
    </linearGradient>
  </defs>

  <!-- Deep Velvet Space Background -->
  <rect width="512" height="512" fill="url(#bg-grad-duckhunt-js)" />

  <!-- Radial lighting corona -->
  <circle cx="256" cy="220" r="230" fill="url(#glow-grad-duckhunt-js)" filter="blur(36px)" />
  <circle cx="256" cy="220" r="115" fill="#06b6d4" fill-opacity="0.18" filter="blur(48px)" />

  <!-- Dedicated Procedural Grid Background -->
  
        <!-- Retro sky backdrop and ground foliage -->
        <rect x="25" y="25" width="462" height="320" fill="#64b5f6" rx="14" />
        <rect x="25" y="320" width="462" height="150" fill="#4caf50" rx="12" />
      

  <!-- Extremely fine, premium border frames -->
  <rect x="18" y="18" width="476" height="476" rx="34" fill="none" stroke="#10b981" stroke-width="2.5" stroke-opacity="0.18" />
  <rect x="22" y="22" width="468" height="468" rx="30" fill="none" stroke="#ffffff" stroke-width="1.2" stroke-opacity="0.06" />

  <!-- Detached High-Fidelity Custom Theme Art Core -->
  
        <g transform="translate(256, 200)">
          <!-- Pixel-style Marsh Trees -->
          <rect x="-180" y="70" width="40" height="90" fill="#3e2723" />
          <rect x="-210" y="20" width="100" height="60" fill="#2e7d32" rx="10" />
          <rect x="140" y="50" width="30" height="110" fill="#3e2723" />
          <rect x="110" y="-10" width="90" height="70" fill="#2e7d32" rx="10" />

          <!-- Pixel style floating duck -->
          <g transform="translate(-15, -40) scale(1.4)">
            <!-- Head -->
            <rect x="10" y="-30" width="30" height="25" fill="#2e7d32" />
            <rect x="30" y="-20" width="15" height="10" fill="#ffb300" /> <!-- Beak -->
            <rect x="18" y="-24" width="6" height="6" fill="#ffffff" />
            <rect x="20" y="-24" width="3" height="3" fill="#000000" />
            <!-- Body -->
            <rect x="-20" y="-10" width="45" height="25" fill="#5d4037" rx="4" />
            <rect x="-10" y="-5" width="25" height="15" fill="#ffffff" rx="2" />
            <!-- Flapping Wing -->
            <polygon points="-8,-10 -25,-35 -5,-25" fill="#ffb300" />
            <polygon points="-5,-5 -18,15 0,8" fill="#ffb300" />
          </g>

          <!-- Vibrant glowing red crosshair targeting the duck -->
          <g transform="translate(35, -20)" stroke="#ff1744" stroke-width="4.5" fill="none">
            <circle cx="0" cy="0" r="42" stroke-dasharray="14,10" />
            <circle cx="0" cy="0" r="14" />
            <line x1="-60" y1="0" x2="60" y2="0" />
            <line x1="0" y1="-60" x2="0" y2="60" />
            <circle cx="0" cy="0" r="3.5" fill="#ff1744" />
          </g>
        </g>
      

  <!-- Ambient Bottom Shadow Blend to maximize overlaying HTML text readabilities -->
  <rect x="18" y="290" width="476" height="204" fill="url(#vignette-duckhunt-js)" rx="34" style="mix-blend-mode: multiply;" />
  <defs>
    <linearGradient id="vignette-duckhunt-js" x1="0%" y1="0%" x2="0%" y2="100%">
      <stop offset="0%" stop-color="#000000" stop-opacity="0" />
      <stop offset="50%" stop-color="#000000" stop-opacity="0.6" />
      <stop offset="100%" stop-color="#000000" stop-opacity="0.98" />
    </linearGradient>
  </defs>
</svg>