<svg xmlns="http://www.w3.org/2000/svg" viewBox="0 0 512 512" width="512" height="512">
  <defs>
    <linearGradient id="bg-grad-js-tiny-platformer" x1="0%" y1="0%" x2="100%" y2="100%">
      <stop offset="0%" stop-color="#070712" />
      <stop offset="50%" stop-color="#0f0e21" />
      <stop offset="100%" stop-color="#04040a" />
    </linearGradient>
    <linearGradient id="glow-grad-js-tiny-platformer" x1="0%" y1="0%" x2="100%" y2="100%">
      <stop offset="0%" stop-color="#eab308" stop-opacity="0.35" />
      <stop offset="100%" stop-color="#ea580c" stop-opacity="0.0" />
    </linearGradient>
  </defs>

  <!-- Deep Velvet Space Background -->
  <rect width="512" height="512" fill="url(#bg-grad-js-tiny-platformer)" />

  <!-- Radial lighting corona -->
  <circle cx="256" cy="220" r="230" fill="url(#glow-grad-js-tiny-platformer)" filter="blur(36px)" />
  <circle cx="256" cy="220" r="115" fill="#ea580c" fill-opacity="0.18" filter="blur(48px)" />

  <!-- Dedicated Procedural Grid Background -->
  
        <!-- Pixels of sky and rocky hill templates -->
        <rect x="20" y="20" width="472" height="472" fill="#1b1b22" rx="24" />
        <path d="M 20,380 Q 150,330 280,360 T 492,340 L 492,492 L 20,492 Z" fill="#3e2723" opacity="0.9" />
        <path d="M 20,410 Q 180,370 320,400 T 492,390 L 492,492 L 20,492 Z" fill="#271510" />
      

  <!-- Extremely fine, premium border frames -->
  <rect x="18" y="18" width="476" height="476" rx="34" fill="none" stroke="#eab308" stroke-width="2.5" stroke-opacity="0.18" />
  <rect x="22" y="22" width="468" height="468" rx="30" fill="none" stroke="#ffffff" stroke-width="1.2" stroke-opacity="0.06" />

  <!-- Detached High-Fidelity Custom Theme Art Core -->
  
        <g transform="translate(256, 190)">
          <!-- Modular game ledges -->
          <rect x="-180" y="30" width="130" height="30" fill="#795548" stroke="#3e2723" stroke-width="4.5" rx="4" />
          <rect x="50" y="-30" width="150" height="30" fill="#795548" stroke="#3e2723" stroke-width="4.5" rx="4" />
          <!-- Neon Green Grassy Caps -->
          <rect x="-180" y="20" width="130" height="10" fill="#8bc34a" rx="2" />
          <rect x="50" y="-40" width="150" height="10" fill="#8bc34a" rx="2" />

          <!-- Super cute running platform character with a blue helmet jumping -->
          <g transform="translate(-115, -34)">
            <rect x="-16" y="-32" width="32" height="46" rx="10" fill="#29b6f6" stroke="#01579b" stroke-width="3" />
            <!-- Visor/Face -->
            <rect x="2" y="-24" width="16" height="15" rx="3" fill="#ffffff" />
            <rect x="10" y="-20" width="4" height="6" fill="#ec4899" />
            <!-- Shoes/Arms -->
            <circle cx="-10" cy="18" r="7.5" fill="#ff7043" />
            <circle cx="10" cy="18" r="7.5" fill="#ff7043" />
            <path d="M 12,-10 L 26,-2" stroke="#01579b" stroke-width="4" stroke-linecap="round" />
          </g>

          <!-- Golden glowing collectible coin -->
          <g transform="translate(130, -95)">
            <circle cx="0" cy="0" r="17" fill="#ffd54f" stroke="#ff8f00" stroke-width="2.5" />
            <text x="0" y="1" fill="#ff8f00" font-family="'Courier New', Courier, monospace" font-weight="900" font-size="20" text-anchor="middle" dominant-baseline="central">$</text>
            <circle cx="4" cy="-5" r="2.5" fill="#ffffff" opacity="0.8" />
          </g>

          <!-- Red glowing geometric floor spike obstacles -->
          <polygon points="-10,120 0,90 10,120" fill="#f44336" stroke="#b71c1c" stroke-width="2" />
          <polygon points="10,120 20,95 30,120" fill="#f44336" stroke="#b71c1c" stroke-width="2" />
        </g>
      

  <!-- Ambient Bottom Shadow Blend to maximize overlaying HTML text readabilities -->
  <rect x="18" y="290" width="476" height="204" fill="url(#vignette-js-tiny-platformer)" rx="34" style="mix-blend-mode: multiply;" />
  <defs>
    <linearGradient id="vignette-js-tiny-platformer" x1="0%" y1="0%" x2="0%" y2="100%">
      <stop offset="0%" stop-color="#000000" stop-opacity="0" />
      <stop offset="50%" stop-color="#000000" stop-opacity="0.6" />
      <stop offset="100%" stop-color="#000000" stop-opacity="0.98" />
    </linearGradient>
  </defs>
</svg>