<svg xmlns="http://www.w3.org/2000/svg" viewBox="0 0 512 512" width="512" height="512">
  <defs>
    <linearGradient id="bg-grad-spaceport-manager" x1="0%" y1="0%" x2="100%" y2="100%">
      <stop offset="0%" stop-color="#070712" />
      <stop offset="50%" stop-color="#0f0e21" />
      <stop offset="100%" stop-color="#04040a" />
    </linearGradient>
    <linearGradient id="glow-grad-spaceport-manager" x1="0%" y1="0%" x2="100%" y2="100%">
      <stop offset="0%" stop-color="#eab308" stop-opacity="0.35" />
      <stop offset="100%" stop-color="#ea580c" stop-opacity="0.0" />
    </linearGradient>
  </defs>

  <!-- Deep Velvet Space Background -->
  <rect width="512" height="512" fill="url(#bg-grad-spaceport-manager)" />

  <!-- Radial lighting corona -->
  <circle cx="256" cy="220" r="230" fill="url(#glow-grad-spaceport-manager)" filter="blur(36px)" />
  <circle cx="256" cy="220" r="115" fill="#ea580c" fill-opacity="0.18" filter="blur(48px)" />

  <!-- Dedicated Procedural Grid Background -->
  
        <!-- Cyber Radar Rings & Holographic grid lines -->
        <circle cx="256" cy="210" r="190" fill="none" stroke="#22d3ee" stroke-width="1.5" stroke-opacity="0.25" />
        <circle cx="256" cy="210" r="120" fill="none" stroke="#22d3ee" stroke-width="1" stroke-opacity="0.15" />
        <circle cx="256" cy="210" r="60" fill="none" stroke="#22d3ee" stroke-width="1" stroke-dasharray="4,6" stroke-opacity="0.2" />
        <line x1="66" y1="210" x2="446" y2="210" stroke="#22d3ee" stroke-width="1" stroke-opacity="0.1" />
        <line x1="256" y1="20" x2="256" y2="400" stroke="#22d3ee" stroke-width="1" stroke-opacity="0.1" />
        <!-- Radar Sweep effect -->
        <path d="M 256,210 L 360,110 A 190,190 0 0,0 256,20 Z" fill="url(#spaceport-radar-sweep-spaceport-manager)" />
        <defs>
          <radialGradient id="spaceport-radar-sweep-spaceport-manager" cx="50%" cy="50%" r="50%">
            <stop offset="0%" stop-color="#22d3ee" stop-opacity="0.15" />
            <stop offset="100%" stop-color="#22d3ee" stop-opacity="0" />
          </radialGradient>
        </defs>
      

  <!-- Extremely fine, premium border frames -->
  <rect x="18" y="18" width="476" height="476" rx="34" fill="none" stroke="#eab308" stroke-width="2.5" stroke-opacity="0.18" />
  <rect x="22" y="22" width="468" height="468" rx="30" fill="none" stroke="#ffffff" stroke-width="1.2" stroke-opacity="0.06" />

  <!-- Detached High-Fidelity Custom Theme Art Core -->
  
        <g transform="translate(256, 210)">
          <!-- Core Spaceport Station structure (hologram blue & white) -->
          <circle cx="0" cy="0" r="45" fill="#1e293b" stroke="#38bdf8" stroke-width="4" filter="drop-shadow(0 0 12px #06b6d4)" />
          <circle cx="0" cy="0" r="30" fill="#eab308" fill-opacity="0.4" stroke="#ffffff" stroke-width="2" />
          
          <!-- Outer Solar Array / Shield Docks extending out -->
          <g stroke="#38bdf8" stroke-width="3" fill="none">
            <!-- Dock 1 -->
            <line x1="0" y1="-45" x2="0" y2="-110" />
            <rect x="-18" y="-120" width="36" height="15" rx="2" fill="#0f172a" stroke="#ffffff" stroke-width="2" />
            <text x="0" y="-112" fill="#38bdf8" font-family="monospace" font-weight="bold" font-size="8" text-anchor="middle">01</text>
            
            <!-- Dock 2 -->
            <line x1="39" y1="22" x2="95" y2="55" />
            <rect x="80" y="45" width="28" height="28" rx="4" fill="#0f172a" stroke="#cbd5e1" stroke-width="2" transform="rotate(30 94 59)" />
            <text x="96" y="58" fill="#a855f7" font-family="monospace" font-weight="bold" font-size="8" text-anchor="middle">02</text>

            <!-- Dock 3 -->
            <line x1="-39" y1="22" x2="-95" y2="55" />
            <rect x="-108" y="45" width="28" height="28" rx="4" fill="#0f172a" stroke="#cbd5e1" stroke-width="2" transform="rotate(-30 -94 59)" />
            <text x="-96" y="58" fill="#22c55e" font-family="monospace" font-weight="bold" font-size="8" text-anchor="middle">03</text>
          </g>
          
          <!-- Spaceships coming isometrically to dock -->
          <!-- Ship A (Cargo cruiser in orange) -->
          <g transform="translate(110, -80) rotate(-15)">
            <polygon points="0,-18 10,12 0,6 -10,12" fill="#f97316" stroke="#ffffff" stroke-width="1.5" />
            <!-- Jet thrust trail -->
            <line x1="0" y1="6" x2="0" y2="22" stroke="#ea580c" stroke-width="3.5" stroke-linecap="round" />
            <circle cx="0" cy="22" r="5" fill="#facc15" opacity="0.8" />
          </g>

          <!-- Ship B (Sleek starfighter in white/cyan) -->
          <g transform="translate(-110, -50) rotate(60)">
            <polygon points="0,-15 8,10 0,5 -8,10" fill="#ffffff" stroke="#06b6d4" stroke-width="1.5" />
            <line x1="0" y1="5" x2="0" y2="17" stroke="#06b6d4" stroke-width="2" />
          </g>

          <!-- Ship C (Heavy shuttle docking at Bay 1) -->
          <g transform="translate(0, -78)">
            <polygon points="0,-12 12,12 -12,12" fill="#e2e8f0" stroke="#334155" stroke-width="1.5" />
            <rect x="-6" y="12" width="12" height="4" fill="#64748b" />
          </g>

          <!-- UI HUD/Telemetry details -->
          <text x="-160" y="-120" fill="#22d3ee" font-family="monospace" font-weight="bold" font-size="10" opacity="0.8">SYS: SYS_OK</text>
          <text x="-160" y="-105" fill="#22d3ee" font-family="monospace" font-weight="bold" font-size="10" opacity="0.8">LOAD: 72%</text>
          <text x="110" y="145" fill="#f43f5e" font-family="monospace" font-weight="black" font-size="10" opacity="0.9">DANGERZONE</text>
          
          <!-- Direction vectors arrows -->
          <path d="M 100,-60 L 50,-30" fill="none" stroke="#22d3ee" stroke-width="1.5" stroke-dasharray="3,3" stroke-linecap="round" />
          <polygon points="50,-30 58,-34 52,-26" fill="#22d3ee" />
        </g>
      

  <!-- Ambient Bottom Shadow Blend to maximize overlaying HTML text readabilities -->
  <rect x="18" y="290" width="476" height="204" fill="url(#vignette-spaceport-manager)" rx="34" style="mix-blend-mode: multiply;" />
  <defs>
    <linearGradient id="vignette-spaceport-manager" x1="0%" y1="0%" x2="0%" y2="100%">
      <stop offset="0%" stop-color="#000000" stop-opacity="0" />
      <stop offset="50%" stop-color="#000000" stop-opacity="0.6" />
      <stop offset="100%" stop-color="#000000" stop-opacity="0.98" />
    </linearGradient>
  </defs>
</svg>