<svg xmlns="http://www.w3.org/2000/svg" viewBox="0 0 512 512" width="512" height="512">
  <defs>
    <linearGradient id="bg-grad-defender-13k" x1="0%" y1="0%" x2="100%" y2="100%">
      <stop offset="0%" stop-color="#070712" />
      <stop offset="50%" stop-color="#0f0e21" />
      <stop offset="100%" stop-color="#04040a" />
    </linearGradient>
    <linearGradient id="glow-grad-defender-13k" x1="0%" y1="0%" x2="100%" y2="100%">
      <stop offset="0%" stop-color="#06b6d4" stop-opacity="0.35" />
      <stop offset="100%" stop-color="#4f46e5" stop-opacity="0.0" />
    </linearGradient>
  </defs>

  <!-- Deep Velvet Space Background -->
  <rect width="512" height="512" fill="url(#bg-grad-defender-13k)" />

  <!-- Radial lighting corona -->
  <circle cx="256" cy="220" r="230" fill="url(#glow-grad-defender-13k)" filter="blur(36px)" />
  <circle cx="256" cy="220" r="115" fill="#4f46e5" fill-opacity="0.18" filter="blur(48px)" />

  <!-- Dedicated Procedural Grid Background -->
  
        <!-- Epic Combat Tactical Grid -->
        <pattern id="grid-defender" width="32" height="32" patternUnits="userSpaceOnUse">
          <rect width="32" height="32" fill="none" stroke="#6366f1" stroke-width="1" stroke-opacity="0.08" />
        </pattern>
        <rect width="512" height="512" fill="url(#grid-defender)" />
        <circle cx="256" cy="210" r="160" fill="none" stroke="#a855f7" stroke-dasharray="8,6" stroke-width="1.5" stroke-opacity="0.2" />
        <circle cx="256" cy="210" r="230" fill="none" stroke="#a855f7" stroke-width="1" stroke-opacity="0.1" />
      

  <!-- Extremely fine, premium border frames -->
  <rect x="18" y="18" width="476" height="476" rx="34" fill="none" stroke="#06b6d4" stroke-width="2.5" stroke-opacity="0.18" />
  <rect x="22" y="22" width="468" height="468" rx="30" fill="none" stroke="#ffffff" stroke-width="1.2" stroke-opacity="0.06" />

  <!-- Detached High-Fidelity Custom Theme Art Core -->
  
        <g transform="translate(256, 210)">
          <!-- Core Central Glowing Base under protection -->
          <g filter="drop-shadow(0 0 16px #415fff)">
            <ellipse cx="0" cy="0" rx="35" ry="35" fill="none" stroke="#ffffff" stroke-width="4" />
            <circle cx="0" cy="0" r="24" fill="#4f46e5" />
            <polygon points="0,-16 13,-6 8,10 -8,10 -13,-6" fill="#00f3ff" />
          </g>
          
          <!-- Glowing Hexagonal Shield Boundary protecting core -->
          <polygon points="0,-70 60,-35 60,35 0,70 -60,35 -60,-35" fill="none" stroke="#22d3ee" stroke-width="2.5" stroke-dasharray="10,8" opacity="0.8" filter="drop-shadow(0 0 8px #22d3ee)" />

          <!-- Powerful Defense Turrets strategically placed -->
          <!-- Turret 1 (Laser Cannon firing up right) -->
          <g transform="translate(-75, -75) rotate(-45)">
            <rect x="-12" y="-12" width="24" height="24" rx="4" fill="#1e1e38" stroke="#f43f5e" stroke-width="3" />
            <!-- Cannon barrels -->
            <rect x="-7" y="-28" width="5" height="18" fill="#f43f5e" />
            <rect x="2" y="-28" width="5" height="18" fill="#f43f5e" />
            <!-- Fire muzzle flash -->
            <polygon points="-8,-28 0,-42 8,-28" fill="#facc15" />
            <!-- Giant red laser beam striking an enemy -->
            <line x1="0" y1="-28" x2="0" y2="-130" stroke="#f43f5e" stroke-width="4" stroke-linecap="round" filter="drop-shadow(0 0 6px #f43f5e)" />
          </g>

          <!-- Turret 2 (Flak Railgun firing up left) -->
          <g transform="translate(85, -60) rotate(35)">
            <rect x="-14" y="-10" width="28" height="20" rx="3" fill="#1e1e38" stroke="#10b981" stroke-width="3" />
            <line x1="0" y1="-10" x2="0" y2="-32" stroke="#10b981" stroke-width="6" />
            <!-- Cyan energy burst ray -->
            <line x1="0" y1="-32" x2="0" y2="-150" stroke="#00ffff" stroke-dasharray="25,15" stroke-width="3" filter="drop-shadow(0 0 6px #00ffff)" />
          </g>

          <!-- Enemies (Magenta alien virus crawlers trying to breach the wall) -->
          <!-- Enemy 1 (About to be roasted by target laser) -->
          <g transform="translate(-160, -160)">
            <polygon points="0,-14 12,6 -12,6" fill="#d946ef" stroke="#ffffff" stroke-width="1.5" />
            <circle cx="0" cy="0" r="16" fill="none" stroke="#ef4444" stroke-width="1.5" stroke-dasharray="3,3" />
            <!-- Disintegration sparks -->
            <circle cx="-12" cy="-12" r="3" fill="#facc15" />
            <circle cx="15" cy="10" r="2.5" fill="#facc15" />
          </g>

          <!-- Enemy 2 (A heavy armored geometric grid monster) -->
          <g transform="translate(150, -115)">
            <rect x="-12" y="-12" width="24" height="24" fill="#a855f7" stroke="#ffffff" stroke-width="2" />
            <!-- Multiple legs -->
            <line x1="-12" y1="-12" x2="-22" y2="-18" stroke="#a855f7" stroke-width="2" />
            <line x1="12" y1="-12" x2="22" y2="-18" stroke="#a855f7" stroke-width="2" />
            <line x1="-12" y1="12" x2="-22" y2="18" stroke="#a855f7" stroke-width="2" />
            <line x1="12" y1="12" x2="22" y2="18" stroke="#a855f7" stroke-width="2" />
          </g>

          <!-- Enemy 3 (Fast scout virus approaching bottom) -->
          <g transform="translate(-110, 80)">
            <polygon points="-12,0 0,-12 12,0 0,12" fill="#ec4899" />
          </g>

          <!-- Combat HUD Details overlay -->
          <text x="-160" y="130" fill="#10b981" font-family="monospace" font-weight="black" font-size="11">WAVE 13</text>
          <text x="-160" y="145" fill="#38bdf8" font-family="monospace" font-weight="bold" font-size="9">SCORE 48,220</text>
          <text x="60" y="140" fill="#ffffff" font-family="monospace" font-weight="bold" font-size="10" opacity="0.75">[DEFEND_SECURE]</text>
        </g>
      

  <!-- Ambient Bottom Shadow Blend to maximize overlaying HTML text readabilities -->
  <rect x="18" y="290" width="476" height="204" fill="url(#vignette-defender-13k)" rx="34" style="mix-blend-mode: multiply;" />
  <defs>
    <linearGradient id="vignette-defender-13k" x1="0%" y1="0%" x2="0%" y2="100%">
      <stop offset="0%" stop-color="#000000" stop-opacity="0" />
      <stop offset="50%" stop-color="#000000" stop-opacity="0.6" />
      <stop offset="100%" stop-color="#000000" stop-opacity="0.98" />
    </linearGradient>
  </defs>
</svg>