<svg xmlns="http://www.w3.org/2000/svg" viewBox="0 0 512 512" width="512" height="512">
  <defs>
    <linearGradient id="bg-grad-floppy-bird" x1="0%" y1="0%" x2="100%" y2="100%">
      <stop offset="0%" stop-color="#070712" />
      <stop offset="50%" stop-color="#0f0e21" />
      <stop offset="100%" stop-color="#04040a" />
    </linearGradient>
    <linearGradient id="glow-grad-floppy-bird" x1="0%" y1="0%" x2="100%" y2="100%">
      <stop offset="0%" stop-color="#10b981" stop-opacity="0.35" />
      <stop offset="100%" stop-color="#06b6d4" stop-opacity="0.0" />
    </linearGradient>
  </defs>

  <!-- Deep Velvet Space Background -->
  <rect width="512" height="512" fill="url(#bg-grad-floppy-bird)" />

  <!-- Radial lighting corona -->
  <circle cx="256" cy="220" r="230" fill="url(#glow-grad-floppy-bird)" filter="blur(36px)" />
  <circle cx="256" cy="220" r="115" fill="#06b6d4" fill-opacity="0.18" filter="blur(48px)" />

  <!-- Dedicated Procedural Grid Background -->
  
        <!-- Scenic sunset canvas -->
        <rect x="20" y="20" width="472" height="472" rx="26" fill="url(#floppy-back)" />
        <defs>
          <linearGradient id="floppy-back" x1="0" y1="0" x2="0" y2="1">
            <stop offset="0%" stop-color="#4fc3f7" />
            <stop offset="60%" stop-color="#fff176" />
            <stop offset="100%" stop-color="#ffb74d" />
          </linearGradient>
        </defs>
      

  <!-- Extremely fine, premium border frames -->
  <rect x="18" y="18" width="476" height="476" rx="34" fill="none" stroke="#10b981" stroke-width="2.5" stroke-opacity="0.18" />
  <rect x="22" y="22" width="468" height="468" rx="30" fill="none" stroke="#ffffff" stroke-width="1.2" stroke-opacity="0.06" />

  <!-- Detached High-Fidelity Custom Theme Art Core -->
  
        <g transform="translate(256, 210)">
          <!-- Classic green piping obstacles -->
          <g transform="translate(-110, 0)">
            <rect x="-28" y="-240" width="56" height="160" fill="#2e7d32" stroke="#1b5e20" stroke-width="4" rx="4" />
            <rect x="-34" y="-95" width="68" height="25" fill="#4caf50" stroke="#1b5e20" stroke-width="4" rx="2" />
            <rect x="-28" y="70" width="56" height="200" fill="#2e7d32" stroke="#1b5e20" stroke-width="4" rx="4" />
            <rect x="-34" y="55" width="68" height="25" fill="#4caf50" stroke="#1b5e20" stroke-width="4" rx="2" />
          </g>
          
          <g transform="translate(130, 0)">
            <rect x="-28" y="-240" width="56" height="110" fill="#2e7d32" stroke="#1b5e20" stroke-width="4" rx="4" />
            <rect x="-34" y="-145" width="68" height="25" fill="#4caf50" stroke="#1b5e20" stroke-width="4" rx="2" />
            <rect x="-28" y="20" width="56" height="200" fill="#2e7d32" stroke="#1b5e20" stroke-width="4" rx="4" />
            <rect x="-34" y="5" width="68" height="25" fill="#4caf50" stroke="#1b5e20" stroke-width="4" rx="2" />
          </g>

          <!-- Sassy flapping yellow bird -->
          <g transform="translate(0, -25) scale(1.65)" stroke="#000000" stroke-width="2.5">
            <!-- Body -->
            <ellipse cx="0" cy="0" rx="19" ry="15" fill="#ffeb3b" />
            <!-- Big white eye -->
            <circle cx="8" cy="-5" r="6" fill="#ffffff" />
            <circle cx="9" cy="-5" r="2.5" fill="#000000" />
            <!-- Huge orange lips/beak -->
            <path d="M 14,-2 L 26,-4 Q 28,0 23,3 L 14,2 Z" fill="#ff5722" />
            <!-- Flittering Wing -->
            <path d="M -10,-2 C -18,-15 -2,-18 -4,-2 Z" fill="#ff9800" />
            <!-- Red tail feathers -->
            <path d="M -18,1 L -25,-4 L -21,-8 Z" fill="#e53935" />
          </g>
          
          <!-- Speed action indicators -->
          <path d="M -65,-25 H -45 M -85,-10 H -55 M -70,5 H -50" stroke="#ffffff" stroke-width="3" stroke-linecap="round" opacity="0.8" />
        </g>
      

  <!-- Ambient Bottom Shadow Blend to maximize overlaying HTML text readabilities -->
  <rect x="18" y="290" width="476" height="204" fill="url(#vignette-floppy-bird)" rx="34" style="mix-blend-mode: multiply;" />
  <defs>
    <linearGradient id="vignette-floppy-bird" x1="0%" y1="0%" x2="0%" y2="100%">
      <stop offset="0%" stop-color="#000000" stop-opacity="0" />
      <stop offset="50%" stop-color="#000000" stop-opacity="0.6" />
      <stop offset="100%" stop-color="#000000" stop-opacity="0.98" />
    </linearGradient>
  </defs>
</svg>