<svg xmlns="http://www.w3.org/2000/svg" viewBox="0 0 512 512" width="512" height="512">
  <defs>
    <linearGradient id="bg-grad-game-of-life" x1="0%" y1="0%" x2="100%" y2="100%">
      <stop offset="0%" stop-color="#070712" />
      <stop offset="50%" stop-color="#0f0e21" />
      <stop offset="100%" stop-color="#04040a" />
    </linearGradient>
    <linearGradient id="glow-grad-game-of-life" x1="0%" y1="0%" x2="100%" y2="100%">
      <stop offset="0%" stop-color="#06b6d4" stop-opacity="0.35" />
      <stop offset="100%" stop-color="#4f46e5" stop-opacity="0.0" />
    </linearGradient>
  </defs>

  <!-- Deep Velvet Space Background -->
  <rect width="512" height="512" fill="url(#bg-grad-game-of-life)" />

  <!-- Radial lighting corona -->
  <circle cx="256" cy="220" r="230" fill="url(#glow-grad-game-of-life)" filter="blur(36px)" />
  <circle cx="256" cy="220" r="115" fill="#4f46e5" fill-opacity="0.18" filter="blur(48px)" />

  <!-- Dedicated Procedural Grid Background -->
  
        <pattern id="conway-grid" width="20" height="20" patternUnits="userSpaceOnUse">
          <rect width="20" height="20" fill="none" stroke="#22c55e" stroke-width="1" stroke-opacity="0.05" />
        </pattern>
        <rect width="512" height="512" fill="url(#conway-grid)" />
      

  <!-- Extremely fine, premium border frames -->
  <rect x="18" y="18" width="476" height="476" rx="34" fill="none" stroke="#06b6d4" stroke-width="2.5" stroke-opacity="0.18" />
  <rect x="22" y="22" width="468" height="468" rx="30" fill="none" stroke="#ffffff" stroke-width="1.2" stroke-opacity="0.06" />

  <!-- Detached High-Fidelity Custom Theme Art Core -->
  
        <g transform="translate(256, 210)">
          <!-- Cyber pixel glider units and pulsar outlines of John Conway's cellular automata -->
          <!-- Glider 1 -->
          <g fill="#22c55e" stroke="#166534" stroke-width="1">
            <rect x="-100" y="-100" width="18" height="18" rx="2" fill-opacity="0.9" />
            <rect x="-80" y="-80" width="18" height="18" rx="2" fill-opacity="0.9" />
            <rect x="-120" y="-60" width="18" height="18" rx="2" fill-opacity="0.9" />
            <rect x="-100" y="-60" width="18" height="18" rx="2" fill-opacity="0.9" />
            <rect x="-80" y="-60" width="18" height="18" rx="2" fill-opacity="0.9" />
          </g>

          <!-- Pentadecathlon oscillator core in green -->
          <g fill="#4ade80" stroke="#166534" stroke-width="1.5">
            <rect x="-10" y="-50" width="18" height="18" rx="3" />
            <rect x="-10" y="-30" width="18" height="18" rx="3" />
            <rect x="-10" y="-10" width="18" height="18" rx="3" fill="#ffffff" />
            <rect x="-10" y="10" width="18" height="18" rx="3" fill="#ffffff" />
            <rect x="-10" y="30" width="18" height="18" rx="3" />
            <rect x="-10" y="50" width="18" height="18" rx="3" />
            <rect x="-10" y="70" width="18" height="18" rx="3" />
            <rect x="-10" y="90" width="18" height="18" rx="3" />
          </g>

          <g fill="#10b981" opacity="0.6">
            <rect x="80" y="40" width="18" height="18" rx="2" />
            <rect x="100" y="40" width="18" height="18" rx="2" />
            <rect x="80" y="60" width="18" height="18" rx="2" />
            <rect x="100" y="60" width="18" height="18" rx="2" />
          </g>
        </g>
      

  <!-- Ambient Bottom Shadow Blend to maximize overlaying HTML text readabilities -->
  <rect x="18" y="290" width="476" height="204" fill="url(#vignette-game-of-life)" rx="34" style="mix-blend-mode: multiply;" />
  <defs>
    <linearGradient id="vignette-game-of-life" x1="0%" y1="0%" x2="0%" y2="100%">
      <stop offset="0%" stop-color="#000000" stop-opacity="0" />
      <stop offset="50%" stop-color="#000000" stop-opacity="0.6" />
      <stop offset="100%" stop-color="#000000" stop-opacity="0.98" />
    </linearGradient>
  </defs>
</svg>