<svg xmlns="http://www.w3.org/2000/svg" viewBox="0 0 512 512" width="512" height="512">
  <defs>
    <linearGradient id="bg-grad-highway-404" x1="0%" y1="0%" x2="100%" y2="100%">
      <stop offset="0%" stop-color="#070712" />
      <stop offset="50%" stop-color="#0f0e21" />
      <stop offset="100%" stop-color="#04040a" />
    </linearGradient>
    <linearGradient id="glow-grad-highway-404" x1="0%" y1="0%" x2="100%" y2="100%">
      <stop offset="0%" stop-color="#ec4899" stop-opacity="0.35" />
      <stop offset="100%" stop-color="#8b5cf6" stop-opacity="0.0" />
    </linearGradient>
  </defs>

  <!-- Deep Velvet Space Background -->
  <rect width="512" height="512" fill="url(#bg-grad-highway-404)" />

  <!-- Radial lighting corona -->
  <circle cx="256" cy="220" r="230" fill="url(#glow-grad-highway-404)" filter="blur(36px)" />
  <circle cx="256" cy="220" r="115" fill="#8b5cf6" fill-opacity="0.18" filter="blur(48px)" />

  <!-- Dedicated Procedural Grid Background -->
  
          <g stroke="#ffffff" stroke-width="2" stroke-opacity="0.06">
            <line x1="0" y1="210" x2="512" y2="210" />
            <line x1="256" y1="0" x2="256" y2="512" />
          </g>
        

  <!-- Extremely fine, premium border frames -->
  <rect x="18" y="18" width="476" height="476" rx="34" fill="none" stroke="#ec4899" stroke-width="2.5" stroke-opacity="0.18" />
  <rect x="22" y="22" width="468" height="468" rx="30" fill="none" stroke="#ffffff" stroke-width="1.2" stroke-opacity="0.06" />

  <!-- Detached High-Fidelity Custom Theme Art Core -->
  
          <g transform="translate(256, 210)">
            <!-- Formula tyre rim wireframe -->
            <circle cx="0" cy="0" r="115" fill="none" stroke="#8b5cf6" stroke-width="8" stroke-opacity="0.4" />
            <circle cx="0" cy="0" r="80" fill="none" stroke="#ffffff" stroke-width="3.5" />
            <!-- Racing rim spokes -->
            <g stroke="#ffffff" stroke-width="5" opacity="0.85">
               <line x1="0" y1="-80" x2="0" y2="80" />
               <line x1="-80" y1="0" x2="80" y2="0" />
               <line x1="-56" y1="-56" x2="56" y2="56" />
               <line x1="56" y1="-56" x2="-56" y2="56" />
            </g>
            <circle cx="0" cy="0" r="18" fill="#ec4899" />

            <!-- Drift smoke curves wrapping wheel -->
            <path d="M -145,55 Q -40,115 110,65" fill="none" stroke="#22d3ee" stroke-width="7.5" stroke-linecap="round" filter="drop-shadow(0 0 4px #22d3ee)" />
            <path d="M -125,85 Q -30,135 90,95" fill="none" stroke="#ec4899" stroke-width="4.5" stroke-linecap="round" />
          </g>
        

  <!-- Ambient Bottom Shadow Blend to maximize overlaying HTML text readabilities -->
  <rect x="18" y="290" width="476" height="204" fill="url(#vignette-highway-404)" rx="34" style="mix-blend-mode: multiply;" />
  <defs>
    <linearGradient id="vignette-highway-404" x1="0%" y1="0%" x2="0%" y2="100%">
      <stop offset="0%" stop-color="#000000" stop-opacity="0" />
      <stop offset="50%" stop-color="#000000" stop-opacity="0.6" />
      <stop offset="100%" stop-color="#000000" stop-opacity="0.98" />
    </linearGradient>
  </defs>
</svg>