<svg xmlns="http://www.w3.org/2000/svg" viewBox="0 0 512 512" width="512" height="512">
  <defs>
    <linearGradient id="bg-grad-pacman-js" x1="0%" y1="0%" x2="100%" y2="100%">
      <stop offset="0%" stop-color="#070712" />
      <stop offset="50%" stop-color="#0f0e21" />
      <stop offset="100%" stop-color="#04040a" />
    </linearGradient>
    <linearGradient id="glow-grad-pacman-js" x1="0%" y1="0%" x2="100%" y2="100%">
      <stop offset="0%" stop-color="#10b981" stop-opacity="0.35" />
      <stop offset="100%" stop-color="#06b6d4" stop-opacity="0.0" />
    </linearGradient>
  </defs>

  <!-- Deep Velvet Space Background -->
  <rect width="512" height="512" fill="url(#bg-grad-pacman-js)" />

  <!-- Radial lighting corona -->
  <circle cx="256" cy="220" r="230" fill="url(#glow-grad-pacman-js)" filter="blur(36px)" />
  <circle cx="256" cy="220" r="115" fill="#06b6d4" fill-opacity="0.18" filter="blur(48px)" />

  <!-- Dedicated Procedural Grid Background -->
  
        <!-- Blueprint retro neon labyrinth walls -->
        <g stroke="#2563eb" stroke-width="5" fill="none" opacity="0.6" stroke-linecap="round" stroke-linejoin="round">
          <rect x="35" y="35" width="442" height="380" rx="16" />
          <path d="M 120,35 V 150 H 220 V 90" />
          <path d="M 392,35 V 150 H 292 V 90" />
          <path d="M 120,415 V 280 H 220 V 330" />
          <path d="M 392,415 V 280 H 292 V 330" />
          <path d="M 35,210 H 140 H 140" />
          <path d="M 477,210 H 372 H 372" />
        </g>
        <!-- Pac dots -->
        <g fill="#ffffff" opacity="0.85">
          <circle cx="80" cy="120" r="4.5" />
          <circle cx="80" cy="165" r="4.5" />
          <circle cx="80" cy="255" r="4.5" />
          <circle cx="80" cy="300" r="4.5" />
          <circle cx="432" cy="120" r="4.5" />
          <circle cx="432" cy="165" r="4.5" />
          <circle cx="432" cy="255" r="4.5" />
          <circle cx="432" cy="300" r="4.5" />
        </g>
      

  <!-- Extremely fine, premium border frames -->
  <rect x="18" y="18" width="476" height="476" rx="34" fill="none" stroke="#10b981" stroke-width="2.5" stroke-opacity="0.18" />
  <rect x="22" y="22" width="468" height="468" rx="30" fill="none" stroke="#ffffff" stroke-width="1.2" stroke-opacity="0.06" />

  <!-- Detached High-Fidelity Custom Theme Art Core -->
  
        <g transform="translate(256, 210)">
          <!-- Mouth wide open Pac-man -->
          <g transform="translate(50, 0)">
            <circle cx="0" cy="0" r="62" fill="#ffd600" />
            <polygon points="0,0 64,-42 64,42" fill="#0c0c1e" />
            <circle cx="10" cy="-34" r="7.5" fill="#000000" />
          </g>

          <!-- Glowing giant Energizer food orb -->
          <circle cx="165" cy="0" r="12" fill="#ffffff" opacity="0.95" filter="drop-shadow(0 0 8px #ffffff)" />

          <!-- Cute pink ghost chasing close behind -->
          <g transform="translate(-110, 5)">
            <path d="M -45,45 C -45,-45 45,-45 45,45 L 30,30 L 15,45 L 0,30 L -15,45 L -30,30 Z" fill="#ff4081" />
            <!-- Googly eyes -->
            <circle cx="-16" cy="5" r="10" fill="#ffffff" />
            <circle cx="-12" cy="5" r="4" fill="#2563eb" />
            <circle cx="16" cy="5" r="10" fill="#ffffff" />
            <circle cx="20" cy="5" r="4" fill="#2563eb" />
          </g>
        </g>
      

  <!-- Ambient Bottom Shadow Blend to maximize overlaying HTML text readabilities -->
  <rect x="18" y="290" width="476" height="204" fill="url(#vignette-pacman-js)" rx="34" style="mix-blend-mode: multiply;" />
  <defs>
    <linearGradient id="vignette-pacman-js" x1="0%" y1="0%" x2="0%" y2="100%">
      <stop offset="0%" stop-color="#000000" stop-opacity="0" />
      <stop offset="50%" stop-color="#000000" stop-opacity="0.6" />
      <stop offset="100%" stop-color="#000000" stop-opacity="0.98" />
    </linearGradient>
  </defs>
</svg>