<svg xmlns="http://www.w3.org/2000/svg" viewBox="0 0 512 512" width="512" height="512">
  <defs>
    <linearGradient id="bg-grad-taxi-drift" x1="0%" y1="0%" x2="100%" y2="100%">
      <stop offset="0%" stop-color="#070712" />
      <stop offset="50%" stop-color="#0f0e21" />
      <stop offset="100%" stop-color="#04040a" />
    </linearGradient>
    <linearGradient id="glow-grad-taxi-drift" x1="0%" y1="0%" x2="100%" y2="100%">
      <stop offset="0%" stop-color="#2563eb" stop-opacity="0.35" />
      <stop offset="100%" stop-color="#06b6d4" stop-opacity="0.0" />
    </linearGradient>
  </defs>

  <!-- Deep Velvet Space Background -->
  <rect width="512" height="512" fill="url(#bg-grad-taxi-drift)" />

  <!-- Radial lighting corona -->
  <circle cx="256" cy="220" r="230" fill="url(#glow-grad-taxi-drift)" filter="blur(36px)" />
  <circle cx="256" cy="220" r="115" fill="#06b6d4" fill-opacity="0.18" filter="blur(48px)" />

  <!-- Dedicated Procedural Grid Background -->
  
        <!-- Outrun synthesizer background -->
        <rect x="20" y="20" width="472" height="472" rx="24" fill="#0f051d" />
        <!-- Neon Sunset Radial backdrop -->
        <circle cx="256" cy="220" r="130" fill="url(#pink-sunset)" />
        <defs>
          <linearGradient id="pink-sunset" x1="0" y1="0" x2="0" y2="1">
            <stop offset="0%" stop-color="#ff007f" />
            <stop offset="60%" stop-color="#ff7b00" />
            <stop offset="100%" stop-color="#ff007f" stop-opacity="0" />
          </linearGradient>
        </defs>
      

  <!-- Extremely fine, premium border frames -->
  <rect x="18" y="18" width="476" height="476" rx="34" fill="none" stroke="#2563eb" stroke-width="2.5" stroke-opacity="0.18" />
  <rect x="22" y="22" width="468" height="468" rx="30" fill="none" stroke="#ffffff" stroke-width="1.2" stroke-opacity="0.06" />

  <!-- Detached High-Fidelity Custom Theme Art Core -->
  
        <!-- Isometric perspective laser grid -->
        <g stroke="#ff00aa" stroke-width="1.5" stroke-opacity="0.25">
          <line x1="256" y1="220" x2="-20" y2="440" />
          <line x1="256" y1="220" x2="110" y2="440" />
          <line x1="256" y1="220" x2="256" y2="440" />
          <line x1="256" y1="220" x2="402" y2="440" />
          <line x1="256" y1="220" x2="532" y2="440" />
          <line x1="0" y1="360" x2="512" y2="360" />
          <line x1="0" y1="410" x2="512" y2="410" />
        </g>

        <g transform="translate(256, 300)">
          <!-- Double tyre smoke billows -->
          <circle cx="-90" cy="50" r="30" fill="#ffffff" fill-opacity="0.16" />
          <circle cx="-60" cy="65" r="42" fill="#ffffff" fill-opacity="0.22" />
          <!-- Thick parallel black tire track skids -->
          <path d="M -90,45 A 110,110 0 0,0 80,68" stroke="#111" stroke-width="10" stroke-linecap="round" fill="none" opacity="0.85" />
          
          <!-- Yellow Retro Sedan Taxi drifting horizontally -->
          <g transform="translate(10, 15) rotate(-26)">
            <!-- Base shadow -->
            <rect x="-85" y="-12" width="165" height="55" rx="14" fill="#000000" fill-opacity="0.5" />
            <!-- Yellow metal body shell -->
            <rect x="-80" y="-18" width="155" height="48" rx="10" fill="#ffd600" stroke="#111" stroke-width="3" />
            <rect x="-15" y="-38" width="70" height="25" rx="5" fill="#ffd600" stroke="#111" stroke-width="3" />
            <!-- Windshield/Windows -->
            <rect x="-5" y="-33" width="55" height="15" fill="#00f3ff" opacity="0.8" />
            <!-- Retro checker livery along the fender -->
            <path d="M -75,0 H 70" stroke="#111" stroke-dasharray="10,10" stroke-width="6" />
            <!-- High-shine alloy wheels -->
            <circle cx="-45" cy="27" r="13" fill="#1a202c" stroke="#ffffff" stroke-width="2.5" />
            <circle cx="45" cy="27" r="13" fill="#1a202c" stroke="#ffffff" stroke-width="2.5" />
            <!-- Sassy taxi top roof sign light -->
            <rect x="10" y="-49" width="34" height="13" rx="2" fill="#ff7c00" stroke="#111" stroke-width="2" />
            <text x="27" y="-42" fill="#111" font-family="'Impact', sans-serif" font-weight="900" font-size="9" text-anchor="middle">TAXI</text>
          </g>
        </g>
      

  <!-- Ambient Bottom Shadow Blend to maximize overlaying HTML text readabilities -->
  <rect x="18" y="290" width="476" height="204" fill="url(#vignette-taxi-drift)" rx="34" style="mix-blend-mode: multiply;" />
  <defs>
    <linearGradient id="vignette-taxi-drift" x1="0%" y1="0%" x2="0%" y2="100%">
      <stop offset="0%" stop-color="#000000" stop-opacity="0" />
      <stop offset="50%" stop-color="#000000" stop-opacity="0.6" />
      <stop offset="100%" stop-color="#000000" stop-opacity="0.98" />
    </linearGradient>
  </defs>
</svg>